<svg width="22" height="22" viewBox="0 0 22 22" fill="none" xmlns="http://www.w3.org/2000/svg">
<path d="M20.9486 19.6289L15.2021 13.8823C16.2841 12.5158 16.9334 10.7914 16.9334 8.9167C16.9334 4.49622 13.3371 0.9 8.91666 0.9C4.49618 0.9 0.9 4.49622 0.9 8.9167C0.9 13.3372 4.49622 16.9334 8.9167 16.9334C10.7914 16.9334 12.5158 16.2841 13.8823 15.2021L19.6289 20.9487L19.6289 20.9487C19.8307 21.1504 20.1577 21.1504 20.3596 20.9487L20.3596 20.9487L20.9487 20.3595L20.878 20.2888L20.9487 20.3595C21.1504 20.1577 21.1504 19.8306 20.9486 19.6289ZM8.9167 15.0667C5.52547 15.0667 2.76668 12.3079 2.76668 8.9167C2.76668 5.52547 5.52547 2.76668 8.9167 2.76668C12.3079 2.76668 15.0667 5.52547 15.0667 8.9167C15.0667 12.3079 12.3079 15.0667 8.9167 15.0667Z" fill="black" stroke="black" stroke-width="0.2"/>
</svg>
